<?xml version="1.0" encoding="utf-8"?>
<!-- Svg Vector Icons : http://www.onlinewebfonts.com/icon -->
<!DOCTYPE svg PUBLIC "-//W3C//DTD SVG 1.1//EN" "http://www.w3.org/Graphics/SVG/1.1/DTD/svg11.dtd">
<svg version="1.1" xmlns="http://www.w3.org/2000/svg" xmlns:xlink="http://www.w3.org/1999/xlink" x="0px" y="0px" viewBox="0 0 256 256" enable-background="new 0 0 256 256" xml:space="preserve">
<metadata> Svg Vector Icons : http://www.onlinewebfonts.com/icon </metadata>
<g><g><g><path fill="#000000" d="M58.3,78.8c-7.2,1.2-14.8,4.3-21.8,8.9c-4.5,2.9-12.8,11.4-16.2,16.5c-3.1,4.8-6.2,11.1-7.9,16.2c-1.3,4.1-2.9,11.8-2.5,12.1c0.1,0.2,1.5,0,3-0.4c9.8-2.5,24.3-3.1,32.8-1.3c9,1.9,15,6,18.1,12.4c1.3,2.5,1.8,4.2,1.9,6.4c0.2,2,0.5,3,0.8,2.8c7.5-3.3,14-4.7,20.6-4.3c10.1,0.6,19.2,4.9,27.6,13.1c3.7,3.6,9.7,11.2,11.8,14.9c0.6,1.1,1.2,1.9,1.3,1.9c0.1,0,1.3-1.7,2.7-3.8c14-22.4,35.3-31.3,55.1-23.2c4.3,1.8,3.9,2,4.5-2.6c0.4-2.9,2.6-7.4,5-10c4.1-4.4,9.8-7,18.6-8.3c8.6-1.3,22.4-0.3,31.2,2.4c1.2,0.4,1.3-0.1,0.3-5.3C240,99.5,215.6,78,189.4,78h-3.6l0.3,1.3c0.1,0.7,0.6,3.3,0.8,5.7c0.5,3.8,0.4,5-0.2,8.3c-1.4,7.3-4.8,11.8-11.5,15.3c-5.8,3-11.2,4.2-20.3,4.5l-7.6,0.2L143,99.8c-2.3-7.4-4.3-13.5-4.4-13.5s-0.7,1.6-1.3,3.6c-0.6,1.9-1.8,5.9-2.7,8.7l-1.6,5.2h-5h-5l-1.6-5.2c-0.9-2.8-2.1-6.8-2.7-8.7c-0.6-2-1.2-3.6-1.3-3.6s-2.1,6.1-4.4,13.5l-4.2,13.5l-7.6-0.2c-6.2-0.2-8.5-0.5-12.1-1.4c-8.5-2.2-15.1-6.8-17.8-12.2c-0.6-1.3-1.5-4.1-1.9-6.2c-0.6-3.2-0.7-4.5-0.2-8.3c0.3-2.5,0.7-5,0.8-5.7l0.3-1.3l-4.1,0C63.9,78.1,60.4,78.4,58.3,78.8z"/></g></g></g>
</svg>